# xmcd CD database file
# Copyright (C) 1996 Ti Kan
#
# Track frame offsets:
# 	150
# 	13137
# 	30207
# 	47752
# 	62140
# 	73775
# 	88207
# 	98800
# 	118500
# 	128920
# 	146135
# 	156065
# 	167202
#
# Disc length: 2489 seconds
#
# Revision: 1
# Processed by: cddbd v1.4b41PL1 Copyright (c) Steve Scherf et al.
# Submitted via: DiscPlay 3.3.1
#
DISCID=b309b70d
DTITLE=Kentucky Headhunters - Best of
DYEAR=1900
DGENRE=
TTITLE0=Dumas Walker
TTITLE1=Walk Softly on this Heart of Mine
TTITLE2=Rock N' Roll Angel
TTITLE3=Oh Lonesome Me
TTITLE4=The Ballald of Davy Cockett
TTITLE5=Only Daddy That'll Walk The Line
TTITLE6=It's Chitlin' Time
TTITLE7=Sprint In The Sky
TTITLE8=Let's Work Together
TTITLE9=Honky Tonk Walkin'
TTITLE10=Dixie Fried
TTITLE11=Redneck Girl
TTITLE12=You've Go To Hide Your Love Away
EXTD=
EXTT0=
EXTT1=
EXTT2=
EXTT3=
EXTT4=
EXTT5=
EXTT6=
EXTT7=
EXTT8=
EXTT9=
EXTT10=
EXTT11=
EXTT12=
PLAYORDER=
